<mxfile host="www.draw.io" modified="2019-11-06T10:44:11.477Z" agent="Mozilla/5.0 (Macintosh; Intel Mac OS X 10_14_5) AppleWebKit/537.36 (KHTML, like Gecko) Chrome/78.0.3904.70 Safari/537.36" etag="Vbs1ktSGoet_gwHHM3yn" version="12.2.0" type="github" pages="1">
  <diagram id="kYvKO1CMlvTVT7cBlnqq" name="Page-1">
    <mxGraphModel dx="1735" dy="1206" grid="1" gridSize="10" guides="1" tooltips="1" connect="1" arrows="1" fold="1" page="1" pageScale="1" pageWidth="827" pageHeight="583" math="0" shadow="0">
      <root>
        <mxCell id="0"/>
        <mxCell id="1" parent="0"/>
        <mxCell id="shs8XNvGW6KoWgrr_nwO-1" value="ImportAdapterInterface" style="swimlane;fontStyle=1;align=center;verticalAlign=top;childLayout=stackLayout;horizontal=1;startSize=26;horizontalStack=0;resizeParent=1;resizeParentMax=0;resizeLast=0;collapsible=1;marginBottom=0;" vertex="1" parent="1">
          <mxGeometry x="333" y="40" width="160" height="34" as="geometry"/>
        </mxCell>
        <mxCell id="shs8XNvGW6KoWgrr_nwO-3" value="" style="line;strokeWidth=1;fillColor=none;align=left;verticalAlign=middle;spacingTop=-1;spacingLeft=3;spacingRight=3;rotatable=0;labelPosition=right;points=[];portConstraint=eastwest;" vertex="1" parent="shs8XNvGW6KoWgrr_nwO-1">
          <mxGeometry y="26" width="160" height="8" as="geometry"/>
        </mxCell>
        <mxCell id="shs8XNvGW6KoWgrr_nwO-5" value="INameListImportAdapter" style="swimlane;fontStyle=1;align=center;verticalAlign=top;childLayout=stackLayout;horizontal=1;startSize=26;horizontalStack=0;resizeParent=1;resizeParentMax=0;resizeLast=0;collapsible=1;marginBottom=0;" vertex="1" parent="1">
          <mxGeometry x="268" y="160" width="290" height="194" as="geometry">
            <mxRectangle x="275" y="160" width="130" height="26" as="alternateBounds"/>
          </mxGeometry>
        </mxCell>
        <mxCell id="shs8XNvGW6KoWgrr_nwO-28" value="+ adoptee: ICRMExportAdoptee&#xa;+ mapper: NameListAbstractMapper" style="text;strokeColor=none;fillColor=none;align=left;verticalAlign=top;spacingLeft=4;spacingRight=4;overflow=hidden;rotatable=0;points=[[0,0.5],[1,0.5]];portConstraint=eastwest;" vertex="1" parent="shs8XNvGW6KoWgrr_nwO-5">
          <mxGeometry y="26" width="290" height="44" as="geometry"/>
        </mxCell>
        <mxCell id="shs8XNvGW6KoWgrr_nwO-7" value="" style="line;strokeWidth=1;fillColor=none;align=left;verticalAlign=middle;spacingTop=-1;spacingLeft=3;spacingRight=3;rotatable=0;labelPosition=right;points=[];portConstraint=eastwest;" vertex="1" parent="shs8XNvGW6KoWgrr_nwO-5">
          <mxGeometry y="70" width="290" height="54" as="geometry"/>
        </mxCell>
        <mxCell id="shs8XNvGW6KoWgrr_nwO-8" value="+ singleImport()&#xa;+ BulkImport()&#xa;+ ScheduleImport()&#xa;..." style="text;strokeColor=none;fillColor=none;align=left;verticalAlign=top;spacingLeft=4;spacingRight=4;overflow=hidden;rotatable=0;points=[[0,0.5],[1,0.5]];portConstraint=eastwest;" vertex="1" parent="shs8XNvGW6KoWgrr_nwO-5">
          <mxGeometry y="124" width="290" height="70" as="geometry"/>
        </mxCell>
        <mxCell id="shs8XNvGW6KoWgrr_nwO-12" value="Extends" style="endArrow=block;endSize=16;endFill=0;html=1;entryX=0.5;entryY=1;entryDx=0;entryDy=0;exitX=0.5;exitY=0;exitDx=0;exitDy=0;" edge="1" parent="1" source="shs8XNvGW6KoWgrr_nwO-5" target="shs8XNvGW6KoWgrr_nwO-1">
          <mxGeometry width="160" relative="1" as="geometry">
            <mxPoint x="290" y="180" as="sourcePoint"/>
            <mxPoint x="450" y="180" as="targetPoint"/>
          </mxGeometry>
        </mxCell>
        <mxCell id="shs8XNvGW6KoWgrr_nwO-13" value="ExportAdopteeInterface" style="swimlane;fontStyle=1;align=center;verticalAlign=top;childLayout=stackLayout;horizontal=1;startSize=26;horizontalStack=0;resizeParent=1;resizeParentMax=0;resizeLast=0;collapsible=1;marginBottom=0;" vertex="1" parent="1">
          <mxGeometry x="780" y="40" width="160" height="34" as="geometry"/>
        </mxCell>
        <mxCell id="shs8XNvGW6KoWgrr_nwO-14" value="" style="line;strokeWidth=1;fillColor=none;align=left;verticalAlign=middle;spacingTop=-1;spacingLeft=3;spacingRight=3;rotatable=0;labelPosition=right;points=[];portConstraint=eastwest;" vertex="1" parent="shs8XNvGW6KoWgrr_nwO-13">
          <mxGeometry y="26" width="160" height="8" as="geometry"/>
        </mxCell>
        <mxCell id="shs8XNvGW6KoWgrr_nwO-20" value="ICRMExportAdoptee" style="swimlane;fontStyle=1;align=center;verticalAlign=top;childLayout=stackLayout;horizontal=1;startSize=26;horizontalStack=0;resizeParent=1;resizeParentMax=0;resizeLast=0;collapsible=1;marginBottom=0;" vertex="1" parent="1">
          <mxGeometry x="715" y="170" width="295" height="114" as="geometry">
            <mxRectangle x="275" y="160" width="130" height="26" as="alternateBounds"/>
          </mxGeometry>
        </mxCell>
        <mxCell id="shs8XNvGW6KoWgrr_nwO-21" value="" style="line;strokeWidth=1;fillColor=none;align=left;verticalAlign=middle;spacingTop=-1;spacingLeft=3;spacingRight=3;rotatable=0;labelPosition=right;points=[];portConstraint=eastwest;" vertex="1" parent="shs8XNvGW6KoWgrr_nwO-20">
          <mxGeometry y="26" width="295" height="8" as="geometry"/>
        </mxCell>
        <mxCell id="shs8XNvGW6KoWgrr_nwO-22" value="+ singleExport()&#xa;+ BulkExport()&#xa;+ ScheduleExport()&#xa;..." style="text;strokeColor=none;fillColor=none;align=left;verticalAlign=top;spacingLeft=4;spacingRight=4;overflow=hidden;rotatable=0;points=[[0,0.5],[1,0.5]];portConstraint=eastwest;" vertex="1" parent="shs8XNvGW6KoWgrr_nwO-20">
          <mxGeometry y="34" width="295" height="80" as="geometry"/>
        </mxCell>
        <mxCell id="shs8XNvGW6KoWgrr_nwO-24" value="Extends" style="endArrow=block;endSize=16;endFill=0;html=1;entryX=0.5;entryY=1;entryDx=0;entryDy=0;exitX=0.5;exitY=0;exitDx=0;exitDy=0;" edge="1" parent="1" source="shs8XNvGW6KoWgrr_nwO-20" target="shs8XNvGW6KoWgrr_nwO-13">
          <mxGeometry width="160" relative="1" as="geometry">
            <mxPoint x="770" y="110" as="sourcePoint"/>
            <mxPoint x="930" y="110" as="targetPoint"/>
          </mxGeometry>
        </mxCell>
        <mxCell id="shs8XNvGW6KoWgrr_nwO-31" value="" style="endArrow=open;endFill=1;endSize=12;html=1;entryX=0;entryY=0.5;entryDx=0;entryDy=0;exitX=1;exitY=0.5;exitDx=0;exitDy=0;" edge="1" parent="1" source="shs8XNvGW6KoWgrr_nwO-5" target="shs8XNvGW6KoWgrr_nwO-22">
          <mxGeometry width="160" relative="1" as="geometry">
            <mxPoint x="690" y="340" as="sourcePoint"/>
            <mxPoint x="770" y="330" as="targetPoint"/>
          </mxGeometry>
        </mxCell>
        <mxCell id="shs8XNvGW6KoWgrr_nwO-32" value="Client" style="swimlane;fontStyle=1;align=center;verticalAlign=top;childLayout=stackLayout;horizontal=1;startSize=26;horizontalStack=0;resizeParent=1;resizeParentMax=0;resizeLast=0;collapsible=1;marginBottom=0;" vertex="1" parent="1">
          <mxGeometry x="-170" y="-220" width="160" height="86" as="geometry"/>
        </mxCell>
        <mxCell id="shs8XNvGW6KoWgrr_nwO-33" value="+ field: type" style="text;strokeColor=none;fillColor=none;align=left;verticalAlign=top;spacingLeft=4;spacingRight=4;overflow=hidden;rotatable=0;points=[[0,0.5],[1,0.5]];portConstraint=eastwest;" vertex="1" parent="shs8XNvGW6KoWgrr_nwO-32">
          <mxGeometry y="26" width="160" height="26" as="geometry"/>
        </mxCell>
        <mxCell id="shs8XNvGW6KoWgrr_nwO-34" value="" style="line;strokeWidth=1;fillColor=none;align=left;verticalAlign=middle;spacingTop=-1;spacingLeft=3;spacingRight=3;rotatable=0;labelPosition=right;points=[];portConstraint=eastwest;" vertex="1" parent="shs8XNvGW6KoWgrr_nwO-32">
          <mxGeometry y="52" width="160" height="8" as="geometry"/>
        </mxCell>
        <mxCell id="shs8XNvGW6KoWgrr_nwO-35" value="+ method(type): type" style="text;strokeColor=none;fillColor=none;align=left;verticalAlign=top;spacingLeft=4;spacingRight=4;overflow=hidden;rotatable=0;points=[[0,0.5],[1,0.5]];portConstraint=eastwest;" vertex="1" parent="shs8XNvGW6KoWgrr_nwO-32">
          <mxGeometry y="60" width="160" height="26" as="geometry"/>
        </mxCell>
        <mxCell id="shs8XNvGW6KoWgrr_nwO-36" value="Use" style="endArrow=open;endSize=12;dashed=1;html=1;entryX=0;entryY=0.5;entryDx=0;entryDy=0;exitX=1;exitY=0.5;exitDx=0;exitDy=0;" edge="1" parent="1" source="shs8XNvGW6KoWgrr_nwO-33" target="shs8XNvGW6KoWgrr_nwO-45">
          <mxGeometry width="160" relative="1" as="geometry">
            <mxPoint x="130" y="130" as="sourcePoint"/>
            <mxPoint x="270" y="120" as="targetPoint"/>
          </mxGeometry>
        </mxCell>
        <mxCell id="shs8XNvGW6KoWgrr_nwO-37" value="NameListAbstractMapper" style="swimlane;fontStyle=1;align=center;verticalAlign=top;childLayout=stackLayout;horizontal=1;startSize=26;horizontalStack=0;resizeParent=1;resizeParentMax=0;resizeLast=0;collapsible=1;marginBottom=0;" vertex="1" parent="1">
          <mxGeometry x="268" y="460" width="290" height="150" as="geometry"/>
        </mxCell>
        <mxCell id="shs8XNvGW6KoWgrr_nwO-38" value="# nameListSchemaPath: String&#xa;# loadedNameListSchema: HashMap" style="text;strokeColor=none;fillColor=none;align=left;verticalAlign=top;spacingLeft=4;spacingRight=4;overflow=hidden;rotatable=0;points=[[0,0.5],[1,0.5]];portConstraint=eastwest;" vertex="1" parent="shs8XNvGW6KoWgrr_nwO-37">
          <mxGeometry y="26" width="290" height="54" as="geometry"/>
        </mxCell>
        <mxCell id="shs8XNvGW6KoWgrr_nwO-39" value="" style="line;strokeWidth=1;fillColor=none;align=left;verticalAlign=middle;spacingTop=-1;spacingLeft=3;spacingRight=3;rotatable=0;labelPosition=right;points=[];portConstraint=eastwest;" vertex="1" parent="shs8XNvGW6KoWgrr_nwO-37">
          <mxGeometry y="80" width="290" height="8" as="geometry"/>
        </mxCell>
        <mxCell id="shs8XNvGW6KoWgrr_nwO-40" value="# doLoadNameListSchema(): void&#xa;# getSchemaMapper(): HashMap" style="text;strokeColor=none;fillColor=none;align=left;verticalAlign=top;spacingLeft=4;spacingRight=4;overflow=hidden;rotatable=0;points=[[0,0.5],[1,0.5]];portConstraint=eastwest;" vertex="1" parent="shs8XNvGW6KoWgrr_nwO-37">
          <mxGeometry y="88" width="290" height="62" as="geometry"/>
        </mxCell>
        <mxCell id="shs8XNvGW6KoWgrr_nwO-41" value="" style="endArrow=open;endFill=1;endSize=12;html=1;entryX=0.5;entryY=0;entryDx=0;entryDy=0;" edge="1" parent="1" source="shs8XNvGW6KoWgrr_nwO-8" target="shs8XNvGW6KoWgrr_nwO-37">
          <mxGeometry width="160" relative="1" as="geometry">
            <mxPoint x="380" y="390" as="sourcePoint"/>
            <mxPoint x="400" y="380" as="targetPoint"/>
          </mxGeometry>
        </mxCell>
        <mxCell id="shs8XNvGW6KoWgrr_nwO-42" value="DataImportFlowTemplate" style="swimlane;fontStyle=1;align=center;verticalAlign=top;childLayout=stackLayout;horizontal=1;startSize=26;horizontalStack=0;resizeParent=1;resizeParentMax=0;resizeLast=0;collapsible=1;marginBottom=0;" vertex="1" parent="1">
          <mxGeometry x="103" y="-260" width="310" height="200" as="geometry"/>
        </mxCell>
        <mxCell id="shs8XNvGW6KoWgrr_nwO-43" value="# APP_ID: String&#xa;# APP_SECRET: String&#xa;# access_token: String&#xa;......" style="text;strokeColor=none;fillColor=none;align=left;verticalAlign=top;spacingLeft=4;spacingRight=4;overflow=hidden;rotatable=0;points=[[0,0.5],[1,0.5]];portConstraint=eastwest;" vertex="1" parent="shs8XNvGW6KoWgrr_nwO-42">
          <mxGeometry y="26" width="310" height="74" as="geometry"/>
        </mxCell>
        <mxCell id="shs8XNvGW6KoWgrr_nwO-44" value="" style="line;strokeWidth=1;fillColor=none;align=left;verticalAlign=middle;spacingTop=-1;spacingLeft=3;spacingRight=3;rotatable=0;labelPosition=right;points=[];portConstraint=eastwest;" vertex="1" parent="shs8XNvGW6KoWgrr_nwO-42">
          <mxGeometry y="100" width="310" height="8" as="geometry"/>
        </mxCell>
        <mxCell id="shs8XNvGW6KoWgrr_nwO-45" value="# login(): void&#xa;# import(): void&#xa;+ startFlow(): final void" style="text;strokeColor=none;fillColor=none;align=left;verticalAlign=top;spacingLeft=4;spacingRight=4;overflow=hidden;rotatable=0;points=[[0,0.5],[1,0.5]];portConstraint=eastwest;" vertex="1" parent="shs8XNvGW6KoWgrr_nwO-42">
          <mxGeometry y="108" width="310" height="92" as="geometry"/>
        </mxCell>
        <mxCell id="shs8XNvGW6KoWgrr_nwO-46" value="Use" style="endArrow=open;endSize=12;dashed=1;html=1;entryX=0.5;entryY=0;entryDx=0;entryDy=0;" edge="1" parent="1" source="shs8XNvGW6KoWgrr_nwO-45" target="shs8XNvGW6KoWgrr_nwO-1">
          <mxGeometry width="160" relative="1" as="geometry">
            <mxPoint x="250" y="-30" as="sourcePoint"/>
            <mxPoint x="410" y="-30" as="targetPoint"/>
          </mxGeometry>
        </mxCell>
      </root>
    </mxGraphModel>
  </diagram>
</mxfile>
